<svg width="85" height="25" viewBox="0 0 85 25" fill="none" xmlns="http://www.w3.org/2000/svg">
<path d="M0.5 24V0.727272H6.81818V18.9091H16.2273V24H0.5ZM38.3405 12.3636C38.3405 14.9545 37.8367 17.1402 36.8291 18.9205C35.8215 20.6932 34.4617 22.0379 32.7495 22.9545C31.0374 23.8636 29.1283 24.3182 27.0223 24.3182C24.9011 24.3182 22.9844 23.8598 21.2723 22.9432C19.5677 22.0189 18.2117 20.6705 17.2041 18.8977C16.2041 17.1174 15.7041 14.9394 15.7041 12.3636C15.7041 9.77273 16.2041 7.59091 17.2041 5.81818C18.2117 4.03788 19.5677 2.69318 21.2723 1.78409C22.9844 0.867423 24.9011 0.40909 27.0223 0.40909C29.1283 0.40909 31.0374 0.867423 32.7495 1.78409C34.4617 2.69318 35.8215 4.03788 36.8291 5.81818C37.8367 7.59091 38.3405 9.77273 38.3405 12.3636ZM31.8405 12.3636C31.8405 10.9697 31.6548 9.79545 31.2836 8.84091C30.92 7.87879 30.3783 7.15151 29.6586 6.65909C28.9465 6.15909 28.0677 5.90909 27.0223 5.90909C25.9768 5.90909 25.0942 6.15909 24.3745 6.65909C23.6624 7.15151 23.1208 7.87879 22.7495 8.84091C22.3859 9.79545 22.2041 10.9697 22.2041 12.3636C22.2041 13.7576 22.3859 14.9356 22.7495 15.8977C23.1208 16.8523 23.6624 17.5795 24.3745 18.0795C25.0942 18.572 25.9768 18.8182 27.0223 18.8182C28.0677 18.8182 28.9465 18.572 29.6586 18.0795C30.3783 17.5795 30.92 16.8523 31.2836 15.8977C31.6548 14.9356 31.8405 13.7576 31.8405 12.3636ZM54.2974 8.40909C54.1989 8.00758 54.0436 7.6553 53.8315 7.35227C53.6194 7.04167 53.3542 6.7803 53.036 6.56818C52.7254 6.34848 52.3618 6.18561 51.9451 6.07954C51.536 5.96591 51.0853 5.90909 50.5928 5.90909C49.5322 5.90909 48.6269 6.16288 47.8769 6.67045C47.1345 7.17803 46.5663 7.90909 46.1724 8.86364C45.786 9.81818 45.5928 10.9697 45.5928 12.3182C45.5928 13.6818 45.7784 14.8485 46.1497 15.8182C46.5209 16.7879 47.0739 17.5303 47.8088 18.0455C48.5436 18.5606 49.4565 18.8182 50.5474 18.8182C51.5095 18.8182 52.3088 18.678 52.9451 18.3977C53.5891 18.1174 54.0701 17.7197 54.3883 17.2045C54.7065 16.6894 54.8656 16.0833 54.8656 15.3864L55.9565 15.5H50.6383V11H60.9565V14.2273C60.9565 16.3485 60.5057 18.1629 59.6042 19.6705C58.7103 21.1705 57.4754 22.322 55.8997 23.125C54.3315 23.9205 52.5322 24.3182 50.5019 24.3182C48.2368 24.3182 46.2481 23.8371 44.536 22.875C42.8239 21.9129 41.4868 20.5417 40.5247 18.7614C39.5701 16.9811 39.0928 14.8636 39.0928 12.4091C39.0928 10.4848 39.3845 8.7803 39.9678 7.29545C40.5588 5.81061 41.3769 4.55682 42.4224 3.53409C43.4678 2.50379 44.6762 1.72727 46.0474 1.20454C47.4186 0.674241 48.8883 0.40909 50.4565 0.40909C51.8353 0.40909 53.1156 0.60606 54.2974 1C55.4868 1.38636 56.536 1.93939 57.4451 2.65909C58.3618 3.37121 59.1004 4.21591 59.661 5.19318C60.2216 6.17045 60.5625 7.24242 60.6838 8.40909H54.2974ZM84.368 12.3636C84.368 14.9545 83.8642 17.1402 82.8566 18.9205C81.849 20.6932 80.4892 22.0379 78.777 22.9545C77.0649 23.8636 75.1558 24.3182 73.0498 24.3182C70.9286 24.3182 69.0119 23.8598 67.2998 22.9432C65.5952 22.0189 64.2392 20.6705 63.2316 18.8977C62.2316 17.1174 61.7316 14.9394 61.7316 12.3636C61.7316 9.77273 62.2316 7.59091 63.2316 5.81818C64.2392 4.03788 65.5952 2.69318 67.2998 1.78409C69.0119 0.867423 70.9286 0.40909 73.0498 0.40909C75.1558 0.40909 77.0649 0.867423 78.777 1.78409C80.4892 2.69318 81.849 4.03788 82.8566 5.81818C83.8642 7.59091 84.368 9.77273 84.368 12.3636ZM77.868 12.3636C77.868 10.9697 77.6824 9.79545 77.3111 8.84091C76.9475 7.87879 76.4058 7.15151 75.6861 6.65909C74.974 6.15909 74.0952 5.90909 73.0498 5.90909C72.0043 5.90909 71.1217 6.15909 70.402 6.65909C69.6899 7.15151 69.1483 7.87879 68.777 8.84091C68.4134 9.79545 68.2316 10.9697 68.2316 12.3636C68.2316 13.7576 68.4134 14.9356 68.777 15.8977C69.1483 16.8523 69.6899 17.5795 70.402 18.0795C71.1217 18.572 72.0043 18.8182 73.0498 18.8182C74.0952 18.8182 74.974 18.572 75.6861 18.0795C76.4058 17.5795 76.9475 16.8523 77.3111 15.8977C77.6824 14.9356 77.868 13.7576 77.868 12.3636Z" fill="#334155"/>
</svg>
